<?xml version="1.0" encoding="UTF-8"?>
<svg width="10rem" height="101px" viewBox="0 0 430 101" version="1.1" xmlns="http://www.w3.org/2000/svg" xmlns:xlink="http://www.w3.org/1999/xlink">
    <title>Group 3</title>
    <defs>
        <rect id="path-1" x="0" y="0" width="101" height="101" rx="18"></rect>
    </defs>
    <g id="Dashboard" stroke="none" stroke-width="1" fill="none" fill-rule="evenodd">
        <g id="Group-3">
            <g id="Logo-/-Icon">
                <mask id="mask-2" fill="white">
                    <use xlink:href="#path-1"></use>
                </mask>
                <use id="bg" fill="#EB5E55" fill-rule="nonzero" xlink:href="#path-1"></use>
                <path d="M45.4703872,77.9957972 L45.4703872,51.0738321 L55.5296128,51.0738321 L55.5296128,67.0874704 L78.1628702,67.0874704 L78.1628702,47.719488 L81.3849658,50.4700501 L85,47.3840536 L52.3075171,19.4759114 L50.5,18 L48.6924829,19.4759114 L16,47.3840536 L19.6150342,50.4700501 L22.8371298,47.719488 L22.8371298,77.9957972 L45.4703872,77.9957972 Z M40.1129032,78 L27.1290323,78 L27.1290323,43.4531572 L50.5,23.8437465 L73.8709677,43.4531572 L73.8709677,67.0916732 L60.8870968,67.0916732 L60.8870968,46.8575687 L40.1129032,46.8575687 L40.1129032,78 Z" id="" fill="#FFFFFF" fill-rule="nonzero" mask="url(#mask-2)"></path>
            </g>
            <path d="M145.219075,76.2671083 L145.21835,59.1445614 L151.410714,59.1445614 L160.558613,76.2671083 L173.748663,76.2671083 L163.372652,57.2259557 L163.694531,57.0757783 C166.173468,55.8807203 168.12755,54.2079082 169.556775,52.0573421 L169.767222,51.731174 C171.281635,49.3129983 172.038842,46.3696632 172.038842,42.9011687 C172.038842,39.4815263 171.297919,36.5219072 169.816074,34.0223114 C168.334229,31.5227157 166.22952,29.6012023 163.501949,28.2577714 C160.774377,26.9143404 157.537929,26.2426249 153.792607,26.2426249 L153.792607,26.2426249 L133.128196,26.2426249 L133.128196,76.2671083 L145.219075,76.2671083 Z M145.219075,35.9886058 L151.179023,35.9886058 C152.986548,35.9886058 154.509103,36.245079 155.746688,36.7580254 C156.984273,37.2709717 157.920604,38.0363203 158.55568,39.054071 C159.190756,40.0718217 159.508295,41.3541876 159.508295,42.9011687 C159.508295,44.4481498 159.190756,45.7142317 158.55568,46.6994144 C157.920604,47.6845971 156.988344,48.4173776 155.758901,48.897756 C154.529458,49.3781343 153.002832,49.6183235 151.179023,49.6183235 L151.179023,49.6183235 L145.21835,49.6184824 L145.219075,35.9886058 Z M195.463392,76.9754628 C199.404123,76.9754628 202.787126,76.1653333 205.612402,74.5450741 C208.437678,72.924815 210.611594,70.6613374 212.134149,67.7546413 C213.656704,64.8479453 214.417982,61.4730839 214.417982,57.6300572 C214.417982,53.7707464 213.656704,50.387743 212.134149,47.481047 C210.611594,44.5743509 208.437678,42.3108733 205.612402,40.6906142 C202.787126,39.070355 199.404123,38.2602254 195.463392,38.2602254 C191.522661,38.2602254 188.139658,39.070355 185.314382,40.6906142 C182.489106,42.3108733 180.31519,44.5743509 178.792635,47.481047 C177.27008,50.387743 176.508803,53.7707464 176.508803,57.6300572 C176.508803,61.4730839 177.27008,64.8479453 178.792635,67.7546413 C180.31519,70.6613374 182.489106,72.924815 185.314382,74.5450741 C188.139658,76.1653333 191.522661,76.9754628 195.463392,76.9754628 Z M195.53667,67.9622625 C194.054825,67.9622625 192.805027,67.5225942 191.787277,66.6432575 C190.769526,65.7639209 189.996035,64.54262 189.466805,62.9793549 C188.937575,61.4160898 188.672959,59.6085646 188.672959,57.5567791 C188.672959,55.4724256 188.937575,53.6486163 189.466805,52.0853512 C189.996035,50.5220861 190.769526,49.3007853 191.787277,48.4214486 C192.805027,47.542112 194.054825,47.1024437 195.53667,47.1024437 C196.969663,47.1024437 198.182822,47.542112 199.176147,48.4214486 C200.169471,49.3007853 200.930749,50.5220861 201.459979,52.0853512 C201.98921,53.6486163 202.253825,55.4724256 202.253825,57.5567791 C202.253825,59.6085646 201.98921,61.4160898 201.459979,62.9793549 C200.930749,64.54262 200.169471,65.7639209 199.176147,66.6432575 C198.182822,67.5225942 196.969663,67.9622625 195.53667,67.9622625 Z M238.062366,76.9754628 C242.003097,76.9754628 245.3861,76.1653333 248.211376,74.5450741 C251.036652,72.924815 253.210568,70.6613374 254.733123,67.7546413 C256.255678,64.8479453 257.016956,61.4730839 257.016956,57.6300572 C257.016956,53.7707464 256.255678,50.387743 254.733123,47.481047 C253.210568,44.5743509 251.036652,42.3108733 248.211376,40.6906142 C245.3861,39.070355 242.003097,38.2602254 238.062366,38.2602254 C234.121636,38.2602254 230.738632,39.070355 227.913356,40.6906142 C225.08808,42.3108733 222.914165,44.5743509 221.39161,47.481047 C219.869054,50.387743 219.107777,53.7707464 219.107777,57.6300572 C219.107777,61.4730839 219.869054,64.8479453 221.39161,67.7546413 C222.914165,70.6613374 225.08808,72.924815 227.913356,74.5450741 C230.738632,76.1653333 234.121636,76.9754628 238.062366,76.9754628 Z M238.135644,67.9622625 C236.653799,67.9622625 235.404001,67.5225942 234.386251,66.6432575 C233.3685,65.7639209 232.595009,64.54262 232.065779,62.9793549 C231.536549,61.4160898 231.271934,59.6085646 231.271934,57.5567791 C231.271934,55.4724256 231.536549,53.6486163 232.065779,52.0853512 C232.595009,50.5220861 233.3685,49.3007853 234.386251,48.4214486 C235.404001,47.542112 236.653799,47.1024437 238.135644,47.1024437 C239.568637,47.1024437 240.781796,47.542112 241.775121,48.4214486 C242.768446,49.3007853 243.529723,50.5220861 244.058954,52.0853512 C244.588184,53.6486163 244.852799,55.4724256 244.852799,57.5567791 C244.852799,59.6085646 244.588184,61.4160898 244.058954,62.9793549 C243.529723,64.54262 242.768446,65.7639209 241.775121,66.6432575 C240.781796,67.5225942 239.568637,67.9622625 238.135644,67.9622625 Z M275.092209,76.2671083 L275.092209,54.0638586 C275.092209,52.8262738 275.316114,51.751529 275.763924,50.8396243 C276.211734,49.9277197 276.834598,49.2234362 277.632514,48.7267739 C278.430431,48.2301115 279.350478,47.9817803 280.392654,47.9817803 C281.939635,47.9817803 283.185362,48.4865847 284.129835,49.4961934 C285.074308,50.5058021 285.546544,51.8818011 285.546544,53.6241903 L285.546544,53.6241903 L285.546544,76.2671083 L297.026772,76.2671083 L297.026772,53.8684505 C297.026772,52.0772092 297.494937,50.6482872 298.431268,49.5816845 C299.367599,48.5150817 300.658107,47.9817803 302.302792,47.9817803 C303.833489,47.9817803 305.079216,48.4743717 306.039972,49.4595544 C307.000729,50.4447371 307.481107,51.8736591 307.481107,53.7463204 L307.481107,53.7463204 L307.481107,76.2671083 L319.42543,76.2671083 L319.42543,51.0106065 C319.42543,47.0535917 318.318117,43.9392745 316.103492,41.6676549 C313.888866,39.3960352 311.006596,38.2602254 307.456681,38.2602254 C304.688399,38.2602254 302.286508,38.9319409 300.251006,40.2753719 C298.215505,41.6188028 296.847648,43.4059731 296.147435,45.6368827 L296.147435,45.6368827 L295.756619,45.6368827 C295.251815,43.3896891 294.071224,41.5984478 292.214847,40.2631589 C290.358469,38.9278699 288.12756,38.2602254 285.522118,38.2602254 C282.949244,38.2602254 280.734619,38.9197279 278.878241,40.2387328 C277.021864,41.5577378 275.702859,43.357121 274.921226,45.6368827 L274.921226,45.6368827 L274.505984,45.6368827 L274.505984,38.7487458 L263.147886,38.7487458 L263.147886,76.2671083 L275.092209,76.2671083 Z M343.143093,76.9754628 C346.497599,76.9754628 349.477573,76.4503035 352.083015,75.3999847 C354.688457,74.349666 356.744313,72.8718919 358.250584,70.9666626 C359.756855,69.0614332 360.518133,66.8223817 360.534417,64.2495078 C360.518133,61.5137939 359.594015,59.3154523 357.762064,57.6544832 C355.930113,55.993514 353.141476,54.8047812 349.396153,54.0882846 L349.396153,54.0882846 L342.166052,52.7204277 C340.586503,52.3947474 339.491403,51.9632211 338.880753,51.4258488 C338.270102,50.8884764 337.972919,50.2533999 337.989203,49.5206194 C337.972919,48.5761467 338.449226,47.8270822 339.418125,47.2734258 C340.387024,46.7197694 341.563544,46.4429412 342.947685,46.4429412 C344.006145,46.4429412 344.938405,46.6179944 345.744464,46.9681006 C346.550522,47.3182069 347.205954,47.7985852 347.710758,48.4092356 C348.215562,49.0198861 348.524959,49.7160276 348.638947,50.4976601 L348.638947,50.4976601 L359.606228,50.2045479 C359.296832,46.4917933 357.676573,43.5728842 354.745451,41.4478207 C351.814329,39.3227572 347.808462,38.2602254 342.72785,38.2602254 C339.340776,38.2602254 336.401512,38.7324618 333.910058,39.6769344 C331.418604,40.6214071 329.497091,41.9851931 328.145518,43.7682923 C326.793945,45.5513916 326.126301,47.6968101 326.142585,50.2045479 C326.126301,53.0705339 327.038205,55.4276446 328.878299,57.2758799 C330.718392,59.1241152 333.519242,60.3901971 337.280849,61.0741256 L337.280849,61.0741256 L343.827021,62.3198525 C345.390286,62.6129647 346.538309,63.015994 347.27109,63.5289403 C348.00387,64.0418867 348.378402,64.7217442 348.394686,65.5685128 C348.378402,66.5129854 347.889882,67.270192 346.929125,67.8401324 C345.968369,68.4100728 344.722642,68.695043 343.191945,68.695043 C341.498408,68.695043 340.106125,68.3367947 339.015096,67.6202982 C337.924067,66.9038017 337.248281,65.861625 336.987736,64.493768 L336.987736,64.493768 L325.18997,64.7868802 C325.629638,68.4996348 327.392383,71.4592539 330.478203,73.6657375 C333.564023,75.8722211 337.785653,76.9754628 343.143093,76.9754628 Z M380.563751,76.2671083 L380.563035,47.5421329 L387.720574,47.542112 L387.720574,38.7487458 L380.563035,38.7488292 L380.563751,36.6481083 C380.563751,35.6560362 380.785753,34.858216 381.229758,34.2546477 L381.345384,34.1078025 C381.866472,33.4890101 382.827229,33.1796138 384.227654,33.1796138 C384.78131,33.1796138 385.371606,33.2284659 385.99854,33.3261699 C386.625474,33.423874 387.158776,33.5460041 387.598444,33.6925602 L387.598444,33.6925602 L389.503674,24.948046 C388.787177,24.7526379 387.692077,24.5287327 386.218374,24.2763305 C384.744671,24.0239284 383.177335,23.8977273 381.516366,23.8977273 C378.97606,23.8977273 376.737008,24.3740346 374.799211,25.3266493 C372.861414,26.279264 371.347001,27.712257 370.255972,29.6256283 C369.164943,31.5389997 368.619429,33.9449624 368.619429,36.8435164 L368.619429,36.8435164 L368.618522,38.7488292 L363.587669,38.7487458 L363.587669,47.542112 L368.618522,47.5421329 L368.619429,76.2671083 L380.563751,76.2671083 Z M400.788494,90.2876423 C403.65448,90.2876423 406.068584,89.839832 408.030808,88.9442113 C409.993031,88.0485907 411.597006,86.8150768 412.842733,85.2436697 C414.08846,83.6722626 415.053288,81.8769503 415.737216,79.8577329 L415.737216,79.8577329 L429.87988,38.7731718 L417.300481,38.7487458 L410.290214,65.5196607 L409.899398,65.5196607 L402.986835,38.7487458 L390.480714,38.7487458 L403.81732,77.6349653 L403.353225,78.7585621 C402.701865,80.0938511 401.769605,80.8469866 400.556446,81.0179687 C399.343287,81.1889508 397.857371,80.9894717 396.098698,80.4195313 L396.098698,80.4195313 L393.460688,89.0907674 C394.372593,89.4490157 395.463622,89.7380569 396.733775,89.957891 C398.003928,90.1777252 399.3555,90.2876423 400.788494,90.2876423 Z" id="Roomsfy" fill="#222226" fill-rule="nonzero"></path>
        </g>
    </g>
</svg>
